HIERARCHY
ROOT hip
{
	OFFSET 0.000000 0.000000 0.000000
	CHANNELS 6 Xposition Yposition Zposition Xrotation Zrotation Yrotation 
	JOINT abdomen
	{
		OFFSET 0.000000 3.422050 0.000000
		CHANNELS 3 Xrotation Zrotation Yrotation 
		JOINT chest
		{
			OFFSET 0.000000 8.486693 -0.684411
			CHANNELS 3 Xrotation Zrotation Yrotation 
			JOINT neck
			{
				OFFSET 0.000000 10.266162 -0.273764
				CHANNELS 3 Xrotation Zrotation Yrotation 
				JOINT head
				{
					OFFSET 0.000000 3.148285 0.000000
					CHANNELS 3 Xrotation Zrotation Yrotation 
					End Site
					{
						OFFSET 0.000000 3.148289 0.000000
					}
				}
			}
			JOINT lCollar
			{
				OFFSET 3.422053 6.707223 -0.821293
				CHANNELS 3 Yrotation Zrotation Xrotation 
				JOINT lShldr
				{
					OFFSET 3.285171 0.000000 0.000000
					CHANNELS 3 Zrotation Yrotation Xrotation 
					JOINT lForeArm
					{
						OFFSET 10.129278 0.000000 0.000000
						CHANNELS 3 Yrotation Zrotation Xrotation 
						JOINT lHand
						{
							OFFSET 8.486692 0.000000 0.000000
							CHANNELS 3 Zrotation Yrotation Xrotation 
							End Site
							{
								OFFSET 4.106464 0.000000 0.000000
							}
						}
					}
				}
			}
			JOINT rCollar
			{
				OFFSET -3.558935 6.707223 -0.821293
				CHANNELS 3 Yrotation Zrotation Xrotation 
				JOINT rShldr
				{
					OFFSET -3.148289 0.000000 0.000000
					CHANNELS 3 Zrotation Yrotation Xrotation 
					JOINT rForeArm
					{
						OFFSET -10.266159 0.000000 0.000000
						CHANNELS 3 Yrotation Zrotation Xrotation 
						JOINT rHand
						{
							OFFSET -8.349810 0.000000 0.000000
							CHANNELS 3 Zrotation Yrotation Xrotation 
							End Site
							{
								OFFSET -4.106464 0.000000 0.000000
							}
						}
					}
				}
			}
		}
	}
	JOINT lThigh
	{
		OFFSET 5.338403 -1.642589 1.368821
		CHANNELS 3 Xrotation Zrotation Yrotation 
		JOINT lShin
		{
			OFFSET -2.053232 -20.121670 0.000000
			CHANNELS 3 Xrotation Zrotation Yrotation 
			JOINT lFoot
			{
				OFFSET 0.000000 -19.300380 -1.231939
				CHANNELS 3 Xrotation Yrotation Zrotation 
				End Site
				{
					OFFSET 0.000000 -2.463878 4.653993
				}
			}
		}
	}
	JOINT rThigh
	{
		OFFSET -5.338403 -1.642589 1.368821
		CHANNELS 3 Xrotation Zrotation Yrotation 
		JOINT rShin
		{
			OFFSET 2.053232 -20.121670 0.000000
			CHANNELS 3 Xrotation Zrotation Yrotation 
			JOINT rFoot
			{
				OFFSET 0.000000 -19.300380 -1.231939
				CHANNELS 3 Xrotation Yrotation Zrotation 
				End Site
				{
					OFFSET 0.000000 -2.463878 4.653993
				}
			}
		}
	}
}
MOTION
Frames: 13
Frame Time: 0.033264
19.995884 5.305927 28.053253 74.797966 0.000000 0.000000 22.949068 -0.127424 -0.049060 -15.367212 -1.152734 -1.078012 -24.006268 0.000000 0.000000 -22.342703 -0.055549 -0.001506 -2.486540 3.166804 3.204372 -33.476242 -28.671270 -45.668774 -101.141151 39.303177 45.048729 -1.307310 6.158594 -5.860936 -5.259151 5.479778 -0.554065 43.507050 35.154301 -35.983631 103.332619 -41.632732 46.794376 6.644011 -1.291698 1.356887 16.146404 29.692339 54.625034 12.042237 -6.818635 16.811920 55.024666 -11.241106 2.156530 13.525928 -36.542618 -54.815578 18.208172 7.504927 -15.770636 55.543732 12.544704 -2.412949 
19.995884 5.305927 28.039585 74.597824 0.000000 0.000000 22.949068 -0.127424 -0.049060 -14.934760 -1.146440 -1.075721 -24.006269 0.000000 0.000000 -22.342703 -0.055549 -0.001506 -2.247149 2.733555 3.013772 -32.995522 -29.555729 -45.880447 -100.827515 39.378731 44.851112 -1.573934 5.800772 -5.181310 -5.148569 5.665578 -0.511645 43.163570 35.498325 -36.190605 103.146851 -41.727470 46.671276 6.659289 -1.222802 1.664573 16.331419 29.760954 54.728840 12.042237 -6.818635 16.811920 54.950920 -11.311899 2.218235 13.729070 -36.596306 -54.931473 18.231834 7.507015 -15.764601 55.500851 12.604307 -2.491966 
19.995884 5.305927 28.025919 74.397690 0.000000 0.000000 22.949068 -0.127424 -0.049060 -14.502331 -1.140163 -1.073382 -24.006268 0.000000 0.000000 -22.342703 -0.055549 -0.001506 -2.009301 2.299553 2.825063 -32.506870 -30.438335 -46.102554 -100.513191 39.453449 44.652744 -1.844582 5.446199 -4.500582 -5.038092 5.851457 -0.469573 42.817085 35.841297 -36.401005 102.960526 -41.821892 46.547585 6.674938 -1.153992 1.972260 16.516706 29.829287 54.832981 12.042236 -6.818635 16.811918 54.877232 -11.382769 2.279861 13.932489 -36.649662 -55.047676 18.255503 7.509101 -15.758565 55.458038 12.663966 -2.570954 
19.995884 5.305927 28.012253 74.197571 0.000000 0.000000 22.949068 -0.127424 -0.049060 -14.069941 -1.133905 -1.070997 -24.006269 0.000000 0.000000 -22.342703 -0.055549 -0.001506 -1.772978 1.864829 2.638234 -32.009907 -31.318863 -46.335400 -100.198196 39.527309 44.453636 -2.119198 5.094965 -3.818783 -4.927716 6.037410 -0.427848 42.467587 36.183205 -36.614868 102.773689 -41.916027 46.423309 6.690957 -1.085270 2.279946 16.702250 29.897312 54.937428 12.042238 -6.818635 16.811922 54.803604 -11.453717 2.341410 14.136179 -36.702682 -55.164196 18.279167 7.511185 -15.752528 55.415306 12.723683 -2.649915 
19.995884 5.305927 27.998585 73.997444 0.000000 0.000000 22.949068 -0.127424 -0.049060 -13.637602 -1.127666 -1.068564 -24.006269 0.000000 0.000000 -22.342703 -0.055549 -0.001506 -1.538167 1.429416 2.453271 -31.504274 -32.197094 -46.579342 -99.882576 39.600342 44.253822 -2.397725 4.747162 -3.135953 -4.817442 6.223438 -0.386470 42.114986 36.523987 -36.832218 102.586296 -42.009861 46.298443 6.707342 -1.016639 2.587624 16.888067 29.965055 55.042213 12.042237 -6.818635 16.811920 54.730034 -11.524742 2.402880 14.340137 -36.755371 -55.281025 18.302834 7.513267 -15.746490 55.372639 12.783455 -2.728848 
19.995884 5.305927 27.984919 73.797348 0.000000 0.000000 22.949068 -0.127424 -0.049060 -13.205322 -1.121446 -1.066084 -24.006269 0.000000 0.000000 -22.342703 -0.055549 -0.001506 -1.304849 0.993343 2.270164 -30.989582 -33.072807 -46.834747 -99.566307 39.672508 44.053284 -2.680103 4.402876 -2.452130 -4.707268 6.409538 -0.345438 41.759281 36.863644 -37.053139 102.398369 -42.103386 46.172989 6.724094 -0.948102 2.895293 17.074146 30.032490 55.147312 12.042237 -6.818635 16.811920 54.656525 -11.595842 2.464272 14.544366 -36.807724 -55.398167 18.326506 7.515348 -15.740458 55.330040 12.843285 -2.807752 
19.995884 5.305927 27.971252 73.597214 0.000000 0.000000 22.949068 -0.127424 -0.049060 -12.773117 -1.115246 -1.063558 -24.006269 0.000000 0.000000 -22.342703 -0.055549 -0.001506 -1.073009 0.556639 2.088898 -30.465431 -33.945786 -47.101974 -99.249382 39.743813 43.852024 -2.966272 4.062191 -1.767352 -4.597192 6.595708 -0.304754 41.400398 37.202133 -37.277645 102.209877 -42.196609 46.046928 6.741210 -0.879662 3.202947 17.260489 30.099627 55.252731 12.042237 -6.818635 16.811920 54.583076 -11.667019 2.525585 14.748859 -36.859737 -55.515617 18.350168 7.517423 -15.734417 55.287537 12.903171 -2.886631 
19.995884 5.305927 27.957584 73.397125 0.000000 0.000000 22.949068 -0.127424 -0.049060 -12.341003 -1.109067 -1.060987 -24.006269 0.000000 0.000000 -22.342703 -0.055549 -0.001506 -0.842629 0.119338 1.909461 -29.931381 -34.815758 -47.381416 -98.931831 39.814255 43.650055 -3.256168 3.725196 -1.081665 -4.487213 6.781945 -0.264417 41.038296 37.539398 -37.505768 102.020821 -42.289501 45.920265 6.758693 -0.811323 3.510583 17.447094 30.166470 55.358471 12.042236 -6.818635 16.811918 54.509686 -11.738272 2.586820 14.953618 -36.911415 -55.633362 18.373838 7.519498 -15.728379 55.245106 12.963115 -2.965480 
19.995884 5.305927 27.943918 73.197037 0.000000 0.000000 22.949068 -0.127424 -0.049060 -11.908983 -1.102908 -1.058368 -24.006269 0.000000 0.000000 -22.342703 -0.055549 -0.001506 -0.613694 -0.318532 1.731842 -29.386995 -35.682526 -47.673496 -98.613686 39.883842 43.447411 -3.549727 3.391971 -0.395110 -4.377331 6.968250 -0.224426 40.672943 37.875439 -37.737587 101.831223 -42.382088 45.793007 6.776540 -0.743086 3.818198 17.633966 30.233017 55.464542 12.042238 -6.818635 16.811922 54.436356 -11.809599 2.647976 15.158650 -36.962765 -55.751450 18.397501 7.521567 -15.722336 55.202736 13.023111 -3.044302 
19.995884 5.305927 27.930252 72.996964 0.000000 0.000000 22.949068 -0.127424 -0.049060 -11.477078 -1.096771 -1.055705 -24.006269 0.000000 0.000000 -22.342703 -0.055549 -0.001506 -0.386187 -0.756939 1.556027 -28.831835 -36.545837 -47.978638 -98.294914 39.952541 43.244068 -3.846882 3.062598 0.292263 -4.267542 7.154614 -0.184783 40.304287 38.210209 -37.973125 101.641090 -42.474369 45.665165 6.794750 -0.674956 4.125789 17.821098 30.299255 55.570927 12.042237 -6.818635 16.811920 54.363083 -11.881000 2.709054 15.363934 -37.013760 -55.869812 18.421169 7.523637 -15.716294 55.160446 13.083164 -3.123096 
19.995884 5.305927 27.916584 72.796906 0.000000 0.000000 22.949068 -0.127424 -0.049060 -11.045292 -1.090655 -1.052996 -24.006269 0.000000 0.000000 -22.342703 -0.055549 -0.001506 -0.160092 -1.195855 1.382004 -28.265392 -37.405445 -48.297314 -97.975510 40.020367 43.040035 -4.147565 2.737155 0.980409 -4.157845 7.341041 -0.145486 39.932274 38.543671 -38.212433 101.450409 -42.566326 45.536720 6.813323 -0.606935 4.433348 18.008486 30.365194 55.677620 12.042237 -6.818635 16.811920 54.289883 -11.952478 2.770053 15.569474 -37.064415 -55.988476 18.444839 7.525705 -15.710257 55.118237 13.143273 -3.201861 
19.995884 5.305927 27.902918 72.596855 0.000000 0.000000 22.949068 -0.127424 -0.049060 -10.613647 -1.084563 -1.050242 -24.006268 0.000000 0.000000 -22.342703 -0.055549 -0.001506 0.064609 -1.635249 1.209762 -27.687170 -38.261101 -48.629971 -97.655556 40.087318 42.835350 -4.451706 2.415717 1.669278 -4.048241 7.527526 -0.106535 39.556866 38.875786 -38.455551 101.259148 -42.657955 45.407665 6.832257 -0.539026 4.740877 18.196135 30.430826 55.784637 12.042237 -6.818635 16.811920 54.216740 -12.024033 2.830973 15.775285 -37.114735 -56.107452 18.468508 7.527769 -15.704212 55.076099 13.203439 -3.280600 
19.995884 5.305927 27.889250 72.396812 0.000000 0.000000 22.949068 -0.127424 -0.049060 -10.182148 -1.078494 -1.047443 -24.006269 0.000000 0.000000 -22.342703 -0.055549 -0.001506 0.287929 -2.075090 1.039288 -27.096649 -39.112556 -48.977127 -97.334999 40.153389 42.629997 -4.759233 2.098359 2.358815 -3.938726 7.714069 -0.067931 39.178020 39.206532 -38.702515 101.067352 -42.749271 45.278023 6.851551 -0.471231 5.048367 18.384041 30.496149 55.891964 12.042236 -6.818635 16.811918 54.143642 -12.095654 2.891814 15.981343 -37.164707 -56.226727 18.492174 7.529830 -15.698167 55.034042 13.263658 -3.359310 
